<?xml version="1.0" standalone="no"?>
<!DOCTYPE svg PUBLIC "-//W3C//DTD SVG 20010904//EN"
 "http://www.w3.org/TR/2001/REC-SVG-20010904/DTD/svg10.dtd">
<svg version="1.0" xmlns="http://www.w3.org/2000/svg"
 width="512.000000pt" height="512.000000pt" viewBox="0 0 512.000000 512.000000"
 preserveAspectRatio="xMidYMid meet">
<metadata>
Created by potrace 1.11, written by Peter Selinger 2001-2013
</metadata>
<g transform="translate(0.000000,512.000000) scale(0.100000,-0.100000)"
fill="#000000" stroke="none">
<path d="M2558 5003 c-171 -302 -196 -392 -142 -501 61 -122 211 -167 330 -97
78 46 125 133 117 219 -6 71 -107 288 -202 438 l-37 58 -66 -117z"/>
<path d="M2490 4292 l-25 -3 0 -317 c1 -174 0 -322 -2 -327 -2 -8 -232 -11
-720 -10 -492 0 -730 -3 -760 -11 -58 -15 -112 -60 -143 -119 -23 -46 -24 -56
-24 -229 0 -112 5 -202 13 -236 19 -78 64 -159 123 -218 l51 -51 0 -306 c0
-168 -3 -308 -7 -312 -3 -3 -21 12 -41 34 -19 22 -49 55 -67 75 -18 19 -73 80
-122 134 -150 166 -192 202 -249 219 -214 61 -400 -159 -298 -352 26 -49 37
-61 156 -168 55 -49 107 -96 116 -105 13 -12 73 -67 213 -195 6 -6 53 -48 105
-95 52 -47 116 -106 143 -131 l49 -45 2 -108 c1 -58 -1 -114 -4 -124 -5 -15
-30 -17 -271 -18 -260 0 -265 -1 -314 -25 -31 -15 -60 -40 -79 -67 -26 -38
-30 -52 -30 -112 0 -60 4 -74 30 -111 34 -49 81 -80 133 -88 l36 -6 95 -288
95 -287 524 0 523 0 72 -47 c232 -152 488 -242 682 -238 108 2 163 18 223 64
38 30 91 130 95 181 l3 35 860 3 860 2 33 103 c18 56 35 109 38 117 3 8 31 92
62 185 52 155 59 170 81 173 48 6 115 48 145 91 26 37 30 51 30 111 0 60 -4
74 -30 112 -17 23 -51 54 -75 67 -43 24 -47 25 -309 25 l-266 0 3 759 2 758
40 42 c46 47 91 129 110 202 19 67 19 395 1 448 -24 72 -97 134 -169 145 -20
3 -353 6 -739 6 l-703 1 -2 329 -3 330 -135 0 c-74 1 -146 0 -160 -2z"/>
</g>
</svg>
